<?xml version="1.0" encoding="UTF-8"?>
<svg version="1.1" xmlns="http://www.w3.org/2000/svg" width="231" height="169">
<path d="M0 0 C76.23 0 152.46 0 231 0 C231 55.77 231 111.54 231 169 C154.77 169 78.54 169 0 169 C0 113.23 0 57.46 0 0 Z " fill="#FEFEFE" transform="translate(0,0)"/>
<path d="M0 0 C5.32094789 1.98976623 8.3067366 4.93666481 11 10 C11 10.99 11 11.98 11 13 C12.22702637 12.86384277 13.45405273 12.72768555 14.71826172 12.58740234 C49.24793243 9.09006239 49.24793243 9.09006239 57.9744873 14.14337158 C61.93757837 17.46477911 64.81513221 21.7201036 67.75 25.9375 C72.4538711 32.64790824 77.21897068 37.91512773 85.47497559 39.78851318 C95.64871541 41.18633414 105.8714754 41.26569885 116.125 41.125 C116.883004 41.11470135 117.641008 41.10440269 118.42198181 41.09379196 C127.96002714 40.94380638 137.4775366 40.56898769 147 40 C147 40.99 147 41.98 147 43 C85.05828804 47.64982565 85.05828804 47.64982565 74.08551025 38.91555786 C70.71918765 35.63001499 68.01499538 32.06120252 65.33605957 28.20910645 C60.97847014 22.00822323 57.51574907 17.18269488 49.74023438 15.67041016 C36.93392059 14.02723359 23.82060635 14.86587608 11 16 C10.72027344 16.93199219 10.44054687 17.86398438 10.15234375 18.82421875 C8.77997987 22.60636056 7.03811052 24.40649102 4 27 C0.27400457 28.24199848 -3.12979217 28.53508555 -7 28 C-12.10209922 25.30455136 -15.17381037 22.4785689 -17 17 C-17.38981277 12.8679846 -17.27518905 10.53979391 -15.375 6.8125 C-10.87137449 1.47925927 -7.08950776 -0.99501863 0 0 Z " fill="#252525" transform="translate(67,61)"/>
<path d="M0 0 C3.88089773 0.15518674 7.76329873 0.222313 11.64642334 0.29754639 C19.22665594 0.45705327 26.7995194 0.7119884 34.37493896 1.02996826 C34.37493896 2.01996826 34.37493896 3.00996826 34.37493896 4.02996826 C33.2034153 3.99879662 33.2034153 3.99879662 32.00822449 3.96699524 C24.58056658 3.78303568 17.15702658 3.67358938 9.72727871 3.64393711 C5.90867236 3.62617173 2.09466858 3.58148816 -1.72247314 3.47113037 C-17.99974274 2.285891 -17.99974274 2.285891 -33.07595825 6.55703735 C-35.6975947 9.0564367 -37.81655804 11.77579567 -39.98690796 14.66622925 C-43.62283545 19.0710108 -46.25327542 20.55072566 -51.98223877 21.262146 C-59.5251287 21.6856328 -67.02485749 21.34451944 -74.56256104 20.96746826 C-77.19192685 20.89210272 -79.82150143 20.82368352 -82.45123291 20.76239014 C-88.84711901 20.59833499 -95.23510092 20.348472 -101.62506104 20.02996826 C-101.81648682 21.18432373 -101.81648682 21.18432373 -102.01177979 22.36199951 C-102.79759697 25.78055451 -104.2295216 27.49754085 -106.62506104 30.02996826 C-111.0820923 32.73263615 -115.55573173 32.93325889 -120.62506104 32.02996826 C-124.88898586 29.62907457 -127.74065626 26.54725633 -129.62506104 22.02996826 C-130.31263364 15.95641028 -128.99740488 12.90113159 -125.62506104 8.02996826 C-121.71654304 4.40063013 -118.46129873 4.52760529 -113.32037354 4.67840576 C-109.52456544 5.17351117 -107.4178487 6.44663967 -104.62506104 9.02996826 C-102.43803741 12.01890055 -101.62506104 13.3094128 -101.62506104 17.02996826 C-94.06654329 17.26950754 -86.51268871 17.38791632 -78.95050049 17.42669678 C-76.38496828 17.45360063 -73.81955934 17.50708172 -71.25518799 17.58880615 C-57.27549933 18.67941442 -57.27549933 18.67941442 -44.46957397 14.50289917 C-42.65439667 12.58441275 -41.05106372 10.61278561 -39.46881104 8.49871826 C-30.17275548 -3.65630655 -13.8209655 -0.61193744 0 0 Z " fill="#202020" transform="translate(179.62506103515625,121.97003173828125)"/>
<path d="M0 0 C4.25993944 1.54082916 6.19231961 4.07822168 8.26953125 8.10546875 C9.4908267 11.27299973 9.4855504 13.66184102 9 17 C6.72939002 21.28892996 4.26652651 24.63979385 0 27 C-5.11799943 27.7565067 -9.43471628 27.88047209 -14 25.3125 C-19 19.53125 -19 19.53125 -19 15 C-41.11 15 -63.22 15 -86 15 C-86 14.01 -86 13.02 -86 12 C-63.89 12 -41.78 12 -19 12 C-18.67 10.35 -18.34 8.7 -18 7 C-12.92903547 -0.2683825 -8.41243536 -0.76588986 0 0 Z " fill="#282828" transform="translate(103,94)"/>
<path d="M0 0 C3.61637258 1.32480976 6.32878647 3.26383032 8.9375 6.125 C10.54873108 10.48480175 10.89106039 14.42351386 10 19 C7.59635388 23.24721936 4.52408991 26.14529647 0 28 C-4.73679066 28.4583991 -7.02668629 28.47747465 -11.3125 26.375 C-14.26917057 23.76212833 -15.59534307 21.66771533 -17 18 C-17 17.01 -17 16.02 -17 15 C-46.37 15 -75.74 15 -106 15 C-106 14.34 -106 13.68 -106 13 C-76.63 13 -47.26 13 -17 13 C-16.67 11.02 -16.34 9.04 -16 7 C-11.26405647 1.51627592 -7.34208919 -1.09120959 0 0 Z " fill="#F8F8F8" transform="translate(123,29)"/>
<path d="M0 0 C3.88034479 2.01203063 6.83714491 4.15492429 9 8 C9 9.32 9 10.64 9 12 C22.86 12 36.72 12 51 12 C51 12.99 51 13.98 51 15 C37.47 15 23.94 15 10 15 C9.34 16.98 8.68 18.96 8 21 C2.84676705 26.79738707 2.84676705 26.79738707 -1.171875 27.23828125 C-6.96640433 27.40509346 -10.55241656 27.1221505 -15 23 C-18.05146436 18.52451893 -18.95053785 14.29132736 -18 9 C-13.99910762 1.14639643 -8.53096573 -1.36916734 0 0 Z " fill="#F9F9F9" transform="translate(163,51)"/>
<path d="M0 0 C3.6578218 2.03993908 5.66946174 3.50419262 8 7 C8.72517392 11.50282411 8.60000036 14.99285654 6.25 18.9375 C3.14683856 21.78206465 1.31026074 22.82909642 -2.875 23.375 C-7.43500643 22.82779923 -10.53459148 20.86506539 -13.375 17.25 C-14.33387734 13.79804156 -14.5738278 10.51994371 -14 7 C-10.50204098 1.25335305 -6.69562884 -0.80347546 0 0 Z " fill="#FAFAFA" transform="translate(67,129)"/>
<path d="M0 0 C3.62535141 1.647887 6.20557709 3.41115419 8 7 C8.71909475 11.67411586 8.66234072 14.94025485 6.125 19 C2.42853343 22.47902736 -0.59608228 22.38781166 -5.515625 22.359375 C-8 22 -8 22 -11.0625 19.625 C-13.74781439 15.98683212 -14.39279906 13.69292064 -14.359375 9.10546875 C-13.72418186 5.38406547 -11.66020984 3.59687151 -9 1 C-5.93570224 -0.53214888 -3.3834358 -0.22938548 0 0 Z " fill="#FBFBFB" transform="translate(67,64)"/>
<path d="M0 0 C3.32954163 4.01503549 3.5607126 6.33394885 3.125 11.5625 C0.04807692 17.10096154 0.04807692 17.10096154 -2.875 18.5625 C-11.83113315 19.70184705 -11.83113315 19.70184705 -15.7109375 17.5390625 C-18.3962409 14.72958322 -19.24006268 11.80940132 -19.5 8.0625 C-19.21457688 3.09277984 -17.51571602 0.87224184 -13.875 -2.4375 C-9.09781514 -4.82609243 -3.87082023 -3.28178237 0 0 Z " fill="#FBFBFB" transform="translate(105.875,99.4375)"/>
<path d="M0 0 C3.61637258 1.32480976 6.32878647 3.26383032 8.9375 6.125 C10.54873108 10.48480175 10.89106039 14.42351386 10 19 C7.59635388 23.24721936 4.52408991 26.14529647 0 28 C-4.73679066 28.4583991 -7.02668629 28.47747465 -11.3125 26.375 C-14.26917057 23.76212833 -15.59534307 21.66771533 -17 18 C-17 17.01 -17 16.02 -17 15 C-46.37 15 -75.74 15 -106 15 C-106 14.34 -106 13.68 -106 13 C-76.63 13 -47.26 13 -17 13 C-16.67 11.02 -16.34 9.04 -16 7 C-11.26405647 1.51627592 -7.34208919 -1.09120959 0 0 Z M-14 8 C-15.5547669 11.10953379 -15.28644437 13.56266761 -15 17 C-12.97333762 20.70390021 -11.51955484 22.65363011 -8 25 C-3.49717589 25.72517392 -0.00714346 25.60000036 3.9375 23.25 C6.78206465 20.14683856 7.82909642 18.31026074 8.375 14.125 C7.89861498 10.15512486 6.46959574 8.10463464 4 5 C-2.75162405 0.4989173 -8.73422086 2.47093191 -14 8 Z " fill="#000000" transform="translate(123,29)"/>
<path d="M0 0 C3.88034479 2.01203063 6.83714491 4.15492429 9 8 C9 9.32 9 10.64 9 12 C22.86 12 36.72 12 51 12 C51 12.99 51 13.98 51 15 C37.47 15 23.94 15 10 15 C9.34 16.98 8.68 18.96 8 21 C2.84676705 26.79738707 2.84676705 26.79738707 -1.171875 27.23828125 C-6.96640433 27.40509346 -10.55241656 27.1221505 -15 23 C-18.05146436 18.52451893 -18.95053785 14.29132736 -18 9 C-13.99910762 1.14639643 -8.53096573 -1.36916734 0 0 Z M-13 6 C-15.69855979 10.04783968 -15.76916112 13.24739391 -15 18 C-13.6918157 20.93885125 -12.60300513 21.83082906 -10 24 C-5.86241139 25.50380531 -2.83161807 25.28243633 1.3125 23.875 C4.34613174 21.75851274 5.60126781 20.41912313 7 17 C7.54957375 12.68192054 7.2941115 10.55671106 5.25 6.6875 C2.26226793 3.11882003 0.68823369 2.22020439 -3.875 1.625 C-7.84487514 2.10138502 -9.89536536 3.53040426 -13 6 Z " fill="#0C0C0C" transform="translate(163,51)"/>
<path d="M0 0 C5.3389083 1.99648251 8.25472307 4.94869046 11 10 C11 10.66 11 11.32 11 12 C10.34 12 9.68 12 9 12 C9 13.65 9 15.3 9 17 C8.67 17 8.34 17 8 17 C7.89042969 16.38511719 7.78085938 15.77023438 7.66796875 15.13671875 C7.50941406 14.32847656 7.35085937 13.52023438 7.1875 12.6875 C7.03667969 11.88699219 6.88585937 11.08648437 6.73046875 10.26171875 C5.90621167 7.70960726 5.09274359 6.64683212 3 5 C-0.60572704 3.79809099 -3.2102435 3.67329685 -7 4 C-9.75329021 5.79562405 -11.52627461 7.05254922 -13 10 C-13.3506291 15.34709374 -13.44403637 18.62872307 -10 23 C-6.29153159 24.8542342 -2.03718213 24.59857275 2 24 C4.93973281 21.64581624 4.93973281 21.64581624 7 19 C7.99 19 8.98 19 10 19 C8.55536047 22.37082558 6.75336875 24.58037292 4 27 C0.27400457 28.24199848 -3.12979217 28.53508555 -7 28 C-12.10209922 25.30455136 -15.17381037 22.4785689 -17 17 C-17.38981277 12.8679846 -17.27518905 10.53979391 -15.375 6.8125 C-10.87137449 1.47925927 -7.08950776 -0.99501863 0 0 Z " fill="#1B1B1B" transform="translate(67,61)"/>
<path d="M0 0 C3.91075925 1.98968453 5.57689098 3.36533646 8 7 C8 8.32 8 9.64 8 11 C7.34 11 6.68 11 6 11 C5.38125 10.05125 4.7625 9.1025 4.125 8.125 C1.73465698 4.55500952 1.73465698 4.55500952 -2 3 C-6.04731569 2.47208926 -7.71493159 2.83864052 -11.3125 4.875 C-14.03696671 6.72041271 -14.03696671 6.72041271 -15 9 C-15.34708476 14.29304255 -15.51351894 17.73358414 -12 22 C-8.78144775 24.33067577 -5.89509474 24.46741137 -2 24 C2.42888896 21.65529408 4.67630067 19.40279873 7 15 C7.33 15 7.66 15 8 15 C8.38937141 18.4069998 8.15388085 19.76368298 6.25 22.6875 C2.86404122 26.16751319 0.02568526 27.31713945 -4.8125 27.5 C-9.70880928 27.41321165 -12.13125249 26.02890388 -15.625 22.703125 C-18.95404607 18.57964748 -19.53809475 15.29126503 -19 10 C-15.24558419 0.57525516 -9.5325509 -1.26916741 0 0 Z " fill="#1B1B1B" transform="translate(69,127)"/>
<path d="M0 0 C3.97633758 2.06803181 6.48266186 4.07257033 8.03515625 8.2734375 C8.75820099 12.61170597 9.04566294 16.48788199 6.828125 20.40625 C3.82600374 24.03919674 0.82866052 26.9624625 -4.03515625 27.50390625 C-9.74262153 27.38454861 -9.74262153 27.38454861 -11.96484375 26.2734375 C-11.96484375 25.2834375 -11.96484375 24.2934375 -11.96484375 23.2734375 C-11.22878906 23.33144531 -10.49273437 23.38945313 -9.734375 23.44921875 C-3.3333889 23.85121709 -3.3333889 23.85121709 2.16015625 20.8984375 C4.90811741 17.05129187 5.49255774 15.03041301 5.03515625 10.2734375 C2.75927395 6.04862004 2.75927395 6.04862004 -0.96484375 3.2734375 C-5.50936348 2.7288094 -8.90606104 2.60594405 -12.83984375 5.0859375 C-13.54109375 5.8078125 -14.24234375 6.5296875 -14.96484375 7.2734375 C-15.56296875 7.8509375 -16.16109375 8.4284375 -16.77734375 9.0234375 C-17.36515625 9.6421875 -17.36515625 9.6421875 -17.96484375 10.2734375 C-18.29484375 9.6134375 -18.62484375 8.9534375 -18.96484375 8.2734375 C-14.46629006 0.77584801 -8.83972637 -3.26876562 0 0 Z " fill="#0F0F0F" transform="translate(124.96484375,29.7265625)"/>
<path d="M0 0 C0.33 0.99 0.66 1.98 1 3 C2.00811234 2.99000725 2.00811234 2.99000725 3.03659058 2.97981262 C10.01148713 2.91360574 16.98629491 2.86826048 23.96142578 2.83520508 C26.56693139 2.82008892 29.17241144 2.79959568 31.77783203 2.77368164 C35.51601456 2.73742312 39.25386165 2.72030202 42.9921875 2.70703125 C44.16304901 2.69154739 45.33391052 2.67606354 46.54025269 2.66011047 C47.62122223 2.65988388 48.70219177 2.65965729 49.81591797 2.65942383 C51.24821243 2.64943108 51.24821243 2.64943108 52.70944214 2.63923645 C53.46532623 2.75828842 54.22121033 2.87734039 55 3 C55.66 3.99 56.32 4.98 57 6 C38.52 6 20.04 6 1 6 C0.67 6.99 0.34 7.98 0 9 C-2 7 -2 7 -2.125 4.375 C-2.08375 3.59125 -2.0425 2.8075 -2 2 C-1.34 2 -0.68 2 0 2 C0 1.34 0 0.68 0 0 Z " fill="#3F3F3F" transform="translate(77,136)"/>
<path d="M0 0 C9.9519573 -0.58540925 9.9519573 -0.58540925 14 3 C17.39453687 7.77070047 18.87159882 11.00775813 18 17 C15.73107261 21.28575173 13.2187751 24.5624855 9 27 C5.96805569 27.31646557 3.03540036 27.23807062 0 27 C0 26.34 0 25.68 0 25 C0.90492187 24.85304688 0.90492187 24.85304688 1.828125 24.703125 C6.69216041 23.79307967 9.89087142 23.14550477 13 19 C14.53214888 15.93570224 14.22938548 13.3834358 14 10 C12.6647367 6.8375343 11.7557751 5.41987505 8.75 3.75 C5.51795537 2.86853328 2.32468113 2.39113896 -1 2 C-0.67 1.34 -0.34 0.68 0 0 Z " fill="#1A1A1A" transform="translate(94,94)"/>
<path d="M0 0 C3.88034479 2.01203063 6.83714491 4.15492429 9 8 C9 9.32 9 10.64 9 12 C22.86 12 36.72 12 51 12 C51 12.33 51 12.66 51 13 C36.81 13 22.62 13 8 13 C7.67 13.66 7.34 14.32 7 15 C6.84144531 14.38511719 6.68289062 13.77023438 6.51953125 13.13671875 C5.06695631 7.96870799 5.06695631 7.96870799 1.6875 3.9375 C-3.69657013 2.059336 -7.77273513 3.008661 -13 5 C-10.29108236 -0.99831763 -6.11793144 -0.751867 0 0 Z " fill="#242424" transform="translate(163,51)"/>
<path d="M0 0 C1.32 0.66 2.64 1.32 4 2 C3.13375 2.3403125 3.13375 2.3403125 2.25 2.6875 C-0.78738074 4.45930543 -2.18872454 5.95964477 -4 9 C-4.81080334 13.46752638 -4.52717689 16.89980476 -2.5625 21 C1.07311581 23.8375538 4.48870351 23.89396525 9 24 C9 24.33 9 24.66 9 25 C6.69 25 4.38 25 2 25 C2 25.66 2 26.32 2 27 C-2.67496012 25.7978674 -4.46383341 23.45867887 -7.08203125 19.65625 C-8 18 -8 18 -8 16 C-7.34 16 -6.68 16 -6 16 C-6 14.35 -6 12.7 -6 11 C-6.66 11 -7.32 11 -8 11 C-6.68206814 5.33289301 -4.51290803 3.33562767 0 0 Z " fill="#323232" transform="translate(92,94)"/>
<path d="M0 0 C0.61875 0.804375 1.2375 1.60875 1.875 2.4375 C4.10154316 5.1224491 4.82658276 5.85462087 8.20703125 6.2734375 C14.07742492 6.58173196 14.07742492 6.58173196 18.9375 3.5 C19.618125 2.675 20.29875 1.85 21 1 C21.99 1 22.98 1 24 1 C22.55536047 4.37082558 20.75336875 6.58037292 18 9 C14.27348227 10.24217258 10.87057926 10.5341253 7 10 C3.70700546 8.29252135 1.64155819 6.94839036 -0.4375 3.875 C-1 2 -1 2 0 0 Z " fill="#151515" transform="translate(53,79)"/>
<path d="M0 0 C5.80368598 -0.47377028 9.52935591 0.37036816 14 4 C18 9.12820513 18 9.12820513 18 12 C17.34 12 16.68 12 16 12 C16 13.65 16 15.3 16 17 C15.67 17 15.34 17 15 17 C14.89042969 16.38511719 14.78085938 15.77023438 14.66796875 15.13671875 C14.50941406 14.32847656 14.35085937 13.52023438 14.1875 12.6875 C14.03667969 11.88699219 13.88585937 11.08648437 13.73046875 10.26171875 C12.90249651 7.69810417 12.11988344 6.63648959 10 5 C8.845 4.67 7.69 4.34 6.5 4 C3.2381315 3.06803757 2.01265819 2.60461648 0 0 Z " fill="#252525" transform="translate(60,61)"/>
<path d="M0 0 C5.51767302 -0.0093838 8.69521219 0.71875964 13.046875 4.43359375 C15.046875 7.43359375 15.046875 7.43359375 15.046875 11.43359375 C14.386875 11.43359375 13.726875 11.43359375 13.046875 11.43359375 C12.428125 10.48484375 11.809375 9.53609375 11.171875 8.55859375 C9.05120847 5.4399665 8.41202661 4.69704417 5.046875 3.43359375 C2.68465268 3.19379613 2.68465268 3.19379613 0.296875 3.30859375 C-0.90195312 3.33566406 -0.90195312 3.33566406 -2.125 3.36328125 C-3.02992187 3.39808594 -3.02992187 3.39808594 -3.953125 3.43359375 C-1.953125 0.43359375 -1.953125 0.43359375 0 0 Z " fill="#191919" transform="translate(61.953125,126.56640625)"/>
<path d="M0 0 C-0.33 0.99 -0.66 1.98 -1 3 C-2.92578125 3.5546875 -2.92578125 3.5546875 -5.3125 3.875 C-8.94012527 4.54763416 -9.75885125 4.73981319 -12.375 7.5625 C-12.91125 8.366875 -13.4475 9.17125 -14 10 C-14.99 10.33 -15.98 10.66 -17 11 C-15.95206157 5.99318305 -14.16901487 3.63663506 -10.01953125 0.90234375 C-6.59192473 -0.62914002 -3.70173753 -0.32471382 0 0 Z " fill="#222222" transform="translate(123,29)"/>
<path d="M0 0 C9.8877551 -0.58163265 9.8877551 -0.58163265 14 3 C14 3.99 14 4.98 14 6 C13.38125 5.71125 12.7625 5.4225 12.125 5.125 C7.84133876 3.58288195 3.47071788 2.81601453 -1 2 C-0.67 1.34 -0.34 0.68 0 0 Z " fill="#111111" transform="translate(94,94)"/>
<path d="M0 0 C1.32 0.66 2.64 1.32 4 2 C3.443125 2.226875 2.88625 2.45375 2.3125 2.6875 C-0.22472385 3.99203598 -0.22472385 3.99203598 -2.625 6.625 C-3.40875 7.40875 -4.1925 8.1925 -5 9 C-5.66 9 -6.32 9 -7 9 C-5.64978174 4.58110387 -3.73884332 2.65654657 0 0 Z " fill="#292929" transform="translate(92,94)"/>
<path d="M0 0 C0.33 0 0.66 0 1 0 C1.39600661 3.46505783 1.14386351 4.78172433 -0.8125 7.75 C-3 10 -3 10 -6 11 C-6.33 10.01 -6.66 9.02 -7 8 C-6.21625 7.236875 -5.4325 6.47375 -4.625 5.6875 C-1.92742283 3.09108195 -1.92742283 3.09108195 0 0 Z " fill="#1A1A1A" transform="translate(76,142)"/>
<path d="M0 0 C0.66 0.33 1.32 0.66 2 1 C1.690625 1.680625 1.38125 2.36125 1.0625 3.0625 C-0.13370649 6.36965912 -0.59005397 9.51545878 -1 13 C-2.5625 11.875 -2.5625 11.875 -4 10 C-3.81878333 5.74140837 -2.81307141 3.17999377 0 0 Z " fill="#292929" transform="translate(149,54)"/>
<path d="M0 0 C1.27875 0.103125 2.5575 0.20625 3.875 0.3125 C4.95394531 0.39951172 4.95394531 0.39951172 6.0546875 0.48828125 C8 1 8 1 10 4 C2.25 4.125 2.25 4.125 0 3 C0 2.01 0 1.02 0 0 Z " fill="#292929" transform="translate(113,53)"/>
<path d="M0 0 C2.1640625 -0.29296875 2.1640625 -0.29296875 4.625 -0.1875 C5.44226563 -0.16042969 6.25953125 -0.13335937 7.1015625 -0.10546875 C8.04128906 -0.05326172 8.04128906 -0.05326172 9 0 C9 0.66 9 1.32 9 2 C5.37 2.33 1.74 2.66 -2 3 C-1.34 2.01 -0.68 1.02 0 0 Z " fill="#060606" transform="translate(60,127)"/>
<path d="M0 0 C3.40424844 1.13474948 4.21653709 1.96811304 6 5 C5.67 5.99 5.34 6.98 5 8 C2.5 5.6875 2.5 5.6875 0 3 C0 2.01 0 1.02 0 0 Z " fill="#141414" transform="translate(107,47)"/>
<path d="M0 0 C-0.33 0.99 -0.66 1.98 -1 3 C-3.64 3 -6.28 3 -9 3 C-9 2.34 -9 1.68 -9 1 C-5.94152152 0.45627049 -3.11227195 0 0 0 Z " fill="#060606" transform="translate(70,151)"/>
<path d="M0 0 C1.61949011 2.57213134 2.04408751 3.67669159 1.625 6.75 C1.41875 7.4925 1.2125 8.235 1 9 C0.01 8.34 -0.98 7.68 -2 7 C-2.1875 4.375 -2.1875 4.375 -2 2 C-1.34 2 -0.68 2 0 2 C0 1.34 0 0.68 0 0 Z " fill="#353535" transform="translate(77,136)"/>
<path d="M0 0 C-0.33 0.66 -0.66 1.32 -1 2 C-3.64 2 -6.28 2 -9 2 C-9 1.34 -9 0.68 -9 0 C-3.375 -1.125 -3.375 -1.125 0 0 Z " fill="#070707" transform="translate(164,76)"/>
<path d="M0 0 C6.625 -0.25 6.625 -0.25 10 2 C9.67 2.66 9.34 3.32 9 4 C3.46153846 3.38461538 3.46153846 3.38461538 1.125 1.4375 C0.75375 0.963125 0.3825 0.48875 0 0 Z " fill="#404040" transform="translate(60,61)"/>
<path d="M0 0 C0 0.99 0 1.98 0 3 C-2.5 5.1875 -2.5 5.1875 -5 7 C-5.33 6.34 -5.66 5.68 -6 5 C-2.25 1.125 -2.25 1.125 0 0 Z " fill="#141414" transform="translate(108,114)"/>
<path d="M0 0 C0.66 0.33 1.32 0.66 2 1 C1.67 1.99 1.34 2.98 1 4 C-1.5625 5.1875 -1.5625 5.1875 -4 6 C-4 5.01 -4 4.02 -4 3 C-2 1.3125 -2 1.3125 0 0 Z " fill="#272727" transform="translate(58,127)"/>
<path d="M0 0 C0.99 0.33 1.98 0.66 3 1 C0.82575883 3.50037734 -0.73045798 4.43628586 -4 5 C-2.25 1.125 -2.25 1.125 0 0 Z " fill="#161616" transform="translate(154,51)"/>
</svg>
